<mxfile host="app.diagrams.net" modified="2024-04-16T18:30:59.588Z" agent="Mozilla/5.0 (Windows NT 10.0; Win64; x64) AppleWebKit/537.36 (KHTML, like Gecko) Chrome/123.0.0.0 Safari/537.36" version="24.2.3" etag="4udd_P9yIY4AF17bZ5lk" type="github">
  <diagram name="Seite-1" id="X7wlqJNr98gCFKCzYASi">
    <mxGraphModel>
      <root>
        <mxCell id="0" />
        <mxCell id="1" parent="0" />
      </root>
    </mxGraphModel>
  </diagram>
</mxfile>
